<?xml version="1.0" encoding="UTF-8"?>
<svg width="64px" height="64px" viewBox="0 0 64 64" version="1.1" xmlns="http://www.w3.org/2000/svg" xmlns:xlink="http://www.w3.org/1999/xlink">
    <!-- Generator: Sketch 61.2 (89653) - https://sketch.com -->
    <title>Logo/@64</title>
    <desc>Created with Sketch.</desc>
    <g id="Logo/@64" stroke="none" stroke-width="1" fill="none" fill-rule="evenodd">
        <g id="Group">
            <rect id="Rectangle" fill="#ACFCC4" x="0" y="0" width="64" height="64" rx="32"></rect>
            <g id="W" transform="translate(11.680000, 16.960000)" fill-rule="nonzero" stroke="#44308A" stroke-width="1.28">
                <path d="M17.0873889,14.3796466 L13.3055665,25.4840854 C13.0305978,26.2413141 12.5661791,26.8841128 11.9211932,27.4030499 C11.2887476,27.9118973 10.5883475,28.2483325 9.82658116,28.4070978 C9.02758014,28.5736235 8.2837561,28.5298688 7.60863182,28.2680984 C6.88609874,27.987946 6.36920016,27.4710908 6.09428212,26.7584344 L-0.374749181,10.6847417 C-0.550719804,10.2186438 -0.64,9.75258742 -0.64,9.28937536 C-0.64,8.33139378 -0.290874097,7.48791799 0.391050906,6.79253309 C1.04380015,6.12689982 1.81275852,5.69781272 2.68541884,5.51593518 C3.40387294,5.36619689 4.08272686,5.4158456 4.70607786,5.67054927 C5.37927171,5.94561893 5.86228948,6.47215183 6.13527362,7.20691917 L9.89218885,17.2284721 L13.952673,5.34894304 C14.201412,4.60063218 14.6114183,3.97270985 15.1785341,3.4764359 C15.7397303,2.98534208 16.367231,2.66440836 17.0534188,2.52139491 C17.7615662,2.37380474 18.4260289,2.43872615 19.0258414,2.72267788 C19.653588,3.01985368 20.1068875,3.54866499 20.377403,4.27682038 L24.0987681,14.5011409 L28.096673,2.40108825 C28.345412,1.6527774 28.7554183,1.02485507 29.3225341,0.528581111 C29.8837303,0.0374872921 30.511231,-0.283446426 31.1974188,-0.426459871 C32.0604995,-0.606340852 32.8460019,-0.483174037 33.5163114,-0.0483271879 C34.2334203,0.416879659 34.592,1.17639217 34.592,2.14919 C34.592,2.5651264 34.495255,3.06901465 34.3013665,3.69022592 L27.871327,22.4329611 C27.6180427,23.1949461 27.1549552,23.8433603 26.4937602,24.3679015 C26.0471332,24.722221 25.3626923,25.0462179 24.4272674,25.3595366 L24.2759041,25.3905656 C23.3195949,25.4683788 22.6187683,25.4271533 22.1366318,25.2402114 C21.4140987,24.9600589 20.8972002,24.4432038 20.6173439,23.7178915 L17.0873889,14.3796466 Z" id="Front" fill="#54DB7D"></path>
                <path d="M20.2873889,15.0196466 L16.5055665,26.1240854 C16.2305978,26.8813141 15.7661791,27.5241128 15.1211932,28.0430499 C14.4887476,28.5518973 13.7883475,28.8883325 13.0265812,29.0470978 C12.2275801,29.2136235 11.4837561,29.1698688 10.8086318,28.9080984 C10.0860987,28.627946 9.56920016,28.1110908 9.29428212,27.3984344 L2.82525082,11.3247417 C2.6492802,10.8586438 2.56,10.3925874 2.56,9.92937536 C2.56,8.97139378 2.9091259,8.12791799 3.59105091,7.43253309 C4.24380015,6.76689982 5.01275852,6.33781272 5.88541884,6.15593518 C6.60387294,6.00619689 7.28272686,6.0558456 7.90607786,6.31054927 C8.57927171,6.58561893 9.06228948,7.11215183 9.33527362,7.84691917 L13.0921889,17.8684721 L17.152673,5.98894304 C17.401412,5.24063218 17.8114183,4.61270985 18.3785341,4.1164359 C18.9397303,3.62534208 19.567231,3.30440836 20.2534188,3.16139491 C20.9615662,3.01380474 21.6260289,3.07872615 22.2258414,3.36267788 C22.853588,3.65985368 23.3068875,4.18866499 23.577403,4.91682038 L27.2987681,15.1411409 L31.296673,3.04108825 C31.545412,2.2927774 31.9554183,1.66485507 32.5225341,1.16858111 C33.0837303,0.677487292 33.711231,0.356553574 34.3974188,0.213540129 C35.2604995,0.0336591483 36.0460019,0.156825963 36.7163114,0.591672812 C37.4334203,1.05687966 37.792,1.81639217 37.792,2.78919 C37.792,3.2051264 37.695255,3.70901465 37.5013665,4.33022592 L31.071327,23.0729611 C30.8180427,23.8349461 30.3549552,24.4833603 29.6937602,25.0079015 C29.2471332,25.362221 28.5626923,25.6862179 27.6272674,25.9995366 L27.4759041,26.0305656 C26.5195949,26.1083788 25.8187683,26.0671533 25.3366318,25.8802114 C24.6140987,25.6000589 24.0972002,25.0832038 23.8173439,24.3578915 L20.2873889,15.0196466 Z" id="Front" fill="#AAFFC4"></path>
                <path d="M23.4873889,16.2996466 L19.7055665,27.4040854 C19.4305978,28.1613141 18.9661791,28.8041128 18.3211932,29.3230499 C17.6887476,29.8318973 16.9883475,30.1683325 16.2265812,30.3270978 C15.4275801,30.4936235 14.6837561,30.4498688 14.0086318,30.1880984 C13.2860987,29.907946 12.7692002,29.3910908 12.4942821,28.6784344 L6.02525082,12.6047417 C5.8492802,12.1386438 5.76,11.6725874 5.76,11.2093754 C5.76,10.2513938 6.1091259,9.40791799 6.79105091,8.71253309 C7.44380015,8.04689982 8.21275852,7.61781272 9.08541884,7.43593518 C9.80387294,7.28619689 10.4827269,7.3358456 11.1060779,7.59054927 C11.7792717,7.86561893 12.2622895,8.39215183 12.5352736,9.12691917 L16.2921889,19.1484721 L20.352673,7.26894304 C20.601412,6.52063218 21.0114183,5.89270985 21.5785341,5.3964359 C22.1397303,4.90534208 22.767231,4.58440836 23.4534188,4.44139491 C24.1615662,4.29380474 24.8260289,4.35872615 25.4258414,4.64267788 C26.053588,4.93985368 26.5068875,5.46866499 26.777403,6.19682038 L30.4987681,16.4211409 L34.496673,4.32108825 C34.745412,3.5727774 35.1554183,2.94485507 35.7225341,2.44858111 C36.2837303,1.95748729 36.911231,1.63655357 37.5974188,1.49354013 C38.4604995,1.31365915 39.2460019,1.43682596 39.9163114,1.87167281 C40.6334203,2.33687966 40.992,3.09639217 40.992,4.06919 C40.992,4.4851264 40.895255,4.98901465 40.7013665,5.61022592 L34.271327,24.3529611 C34.0180427,25.1149461 33.5549552,25.7633603 32.8937602,26.2879015 C32.4471332,26.642221 31.7626923,26.9662179 30.8272674,27.2795366 L30.6759041,27.3105656 C29.7195949,27.3883788 29.0187683,27.3471533 28.5366318,27.1602114 C27.8140987,26.8800589 27.2972002,26.3632038 27.0173439,25.6378915 L23.4873889,16.2996466 Z" id="Front" fill="#FFFFFF"></path>
            </g>
        </g>
    </g>
</svg>